<?xml version="1.0" standalone="no"?><!DOCTYPE svg PUBLIC "-//W3C//DTD SVG 1.1//EN" "http://www.w3.org/Graphics/SVG/1.1/DTD/svg11.dtd"><svg t="1551318889615" class="icon" style="" viewBox="0 0 1024 1024" version="1.1" xmlns="http://www.w3.org/2000/svg" p-id="12595" xmlns:xlink="http://www.w3.org/1999/xlink" width="128" height="128"><defs><style type="text/css"></style></defs><path d="M94.51140693333332 487.7274069333333h378.6524448V111.50222186666662H94.51140693333332v376.22518506666665zM189.1745184 206.1653333333333H378.50074026666664v189.32622186666669H189.1745184V206.1653333333333zM519.2817781333334 111.50222186666662v378.6524448h378.65244373333337V111.50222186666662H519.2817781333334z m283.9893333333333 281.56207466666666h-189.32622293333333V206.1653333333333h189.32622293333333v186.8989632z m-565.5514079999999-46.1179264h94.66311146666666v-94.66311040000001h-94.66311146666666v94.66311040000001zM94.51140693333332 912.4977781333334h378.6524448V536.2725930666667H94.51140693333332V912.4977781333334z m94.66311146666666-281.56207466666666H378.50074026666664v189.32622293333333H189.1745184v-189.32622293333333z m567.9786666666666-378.65244373333337h-94.66311146666666v94.66311040000001h94.66311146666666v-94.66311040000001zM519.2817781333334 912.4977781333334h94.66311040000001v-94.66311146666666h-94.66311040000001V912.4977781333334z m94.66311040000001-281.56207466666666v189.32622293333333h94.66311146666666v-189.32622293333333h-94.66311146666666z m189.32622293333333 186.8989632h-94.66311146666666V912.4977781333334h189.32622186666669v-189.32622293333333h-94.66311040000001v94.66311146666666z m0-186.8989632h94.66311040000001v-94.66311040000001h-94.66311040000001v94.66311040000001z m-283.9893333333333-94.66311040000001v94.66311040000001h94.66311040000001v-94.66311040000001h-94.66311040000001z m-281.56207466666666 235.4441472h94.66311146666666v-94.66311040000001h-94.66311146666666v94.66311040000001z m0 0" fill="#515151" p-id="12596"></path></svg>