<svg height="512pt" viewBox="0 -64 512 512" width="512pt" xmlns="http://www.w3.org/2000/svg"><path d="m10 310v-236c0-35.347656 28.652344-64 64-64h364c35.347656 0 64 28.652344 64 64v236c0 35.347656-28.652344 64-64 64h-364c-35.347656 0-64-28.652344-64-64zm0 0" fill="#4dbaf6"/><path d="m74 374h364c18.53125 0 35.214844-7.886719 46.902344-20.472656l-170.058594-170.054688h-118.628906l-169.574219 169.574219c11.707031 12.871094 28.589844 20.953125 47.359375 20.953125zm0 0" fill="#fff"/><path d="m473.648438 20.84375c-10.1875-6.847656-22.449219-10.84375-35.648438-10.84375h-364c-13.492188 0-26 4.183594-36.320312 11.3125l189.394531 189.390625c15.65625 15.660156 41.042969 15.660156 56.699219 0l189.472656-189.46875c.136718-.132813.265625-.257813.402344-.390625zm0 0" fill="#72d8ff"/><path d="m438 0h-364c-40.804688 0-74 33.195312-74 74v236c0 40.804688 33.195312 74 74 74h39.667969c5.519531 0 10-4.476562 10-10s-4.480469-10-10-10h-39.667969c-12.386719 0-23.804688-4.203125-32.925781-11.242188l157.5625-157.566406 21.914062 21.914063c9.898438 9.898437 22.902344 14.847656 35.90625 14.847656 13 0 26.003907-4.945313 35.902344-14.847656l20.988281-20.988281 157.050782 157.054687c-9.03125 6.792969-20.25 10.828125-32.398438 10.828125h-244.332031c-5.523438 0-10 4.476562-10 10s4.476562 10 10 10h244.332031c40.804688 0 74-33.195312 74-74v-236c0-40.804688-33.195312-74-74-74zm-410.269531 337.8125c-4.902344-8.128906-7.730469-17.648438-7.730469-27.8125v-236c0-15.761719 6.789062-29.964844 17.597656-39.847656l146.898438 146.898437zm250.488281-134.847656c-12 12-31.523438 12-43.523438 0l-179.558593-179.558594c5.875-2.195312 12.230469-3.40625 18.863281-3.40625h364c6.882812 0 13.457031 1.308594 19.515625 3.664062l-38.34375 38.347657c-.582031-.109375-1.179687-.171875-1.792969-.171875h-146.378906c-5.523438 0-10 4.480468-10 10 0 5.523437 4.476562 10 10 10h128.339844zm196.648438-168.367188c10.53125 9.859375 17.132812 23.871094 17.132812 39.402344v236c0 10.410156-2.96875 20.136719-8.09375 28.390625l-156.414062-156.414063zm0 0"/><path d="m153.671875 364c-2.640625 0-5.222656 1.070312-7.070313 2.929688-1.871093 1.859374-2.929687 4.441406-2.929687 7.070312s1.058594 5.210938 2.929687 7.070312c1.859376 1.859376 4.4375 2.929688 7.070313 2.929688 2.628906 0 5.207031-1.070312 7.066406-2.929688 1.859375-1.859374 2.933594-4.441406 2.933594-7.070312s-1.070313-5.210938-2.933594-7.070312c-1.859375-1.859376-4.4375-2.929688-7.066406-2.929688zm0 0"/><path d="m229.121094 61.839844c-2.632813 0-5.210938 1.070312-7.070313 2.929687s-2.929687 4.441407-2.929687 7.070313 1.066406 5.210937 2.929687 7.070312c1.859375 1.859375 4.4375 2.929688 7.070313 2.929688 2.628906 0 5.207031-1.070313 7.066406-2.929688 1.863281-1.859375 2.933594-4.441406 2.933594-7.070312s-1.070313-5.210938-2.933594-7.070313c-1.859375-1.859375-4.4375-2.929687-7.066406-2.929687zm0 0"/></svg>