<?xml version="1.0" standalone="no"?><!DOCTYPE svg PUBLIC "-//W3C//DTD SVG 1.1//EN" "http://www.w3.org/Graphics/SVG/1.1/DTD/svg11.dtd"><svg t="1551265763378" class="icon" style="" viewBox="0 0 1024 1024" version="1.1" xmlns="http://www.w3.org/2000/svg" p-id="4459" xmlns:xlink="http://www.w3.org/1999/xlink" width="128" height="128"><defs><style type="text/css"></style></defs><path d="M496 32h-352a16 16 0 0 0-16 16v480a16 16 0 0 0 16 16h352.064c8.032 0 47.936 2.368 47.936 48a16 16 0 0 0 32 0V111.488C575.136 84 557.312 32 496 32zM544 526.592A89.536 89.536 0 0 0 496 512H160V64h336c44.672 0 47.808 43.616 48 48v414.592z" fill="#828282" p-id="4460"></path><path d="M906.528 672H463.584c0.192 0.032-22.496 0.288-36.48-13.408-8.032-7.904-12.128-19.52-12.128-34.592a16 16 0 0 0-32 0c0 24.128 7.392 43.52 22.016 57.696 21.984 21.28 52.736 22.304 58.208 22.304h443.328c12.448 0 23.008-5.024 29.792-14.176 8.992-12.128 8.8-27.616 5.92-37.184-18.016-59.296-113.312-188.256-140.128-223.872 25.824-39.712 122.08-190.08 140.128-249.376 2.912-9.568 3.104-25.024-5.92-37.184-6.784-9.184-17.344-14.208-29.792-14.208h-281.184a16 16 0 0 0 0 32h281.184c3.168 0 3.808 0.896 4.064 1.248 1.504 1.984 1.76 6.304 0.992 8.8-19.072 62.752-141.184 248.704-142.432 250.592a16 16 0 0 0 0.672 18.528c1.216 1.6 122.848 160.576 141.76 222.752 0.736 2.528 0.512 6.816-0.992 8.832-0.256 0.352-0.896 1.248-4.064 1.248zM96 1008V16a16 16 0 0 0-32 0v992a16 16 0 0 0 32 0z" fill="#828282" p-id="4461"></path></svg>