<?xml version="1.0" standalone="no"?><!DOCTYPE svg PUBLIC "-//W3C//DTD SVG 1.1//EN" "http://www.w3.org/Graphics/SVG/1.1/DTD/svg11.dtd"><svg t="1551404639549" class="icon" style="" viewBox="0 0 1024 1024" version="1.1" xmlns="http://www.w3.org/2000/svg" p-id="2057" xmlns:xlink="http://www.w3.org/1999/xlink" width="128" height="128"><defs><style type="text/css"></style></defs><path d="M992.256 564.8a32.128 32.128 0 0 1-22.656-9.344L512 97.792 54.464 555.392a32 32 0 0 1-45.248-45.248L489.408 29.888a32.896 32.896 0 0 1 45.248 0l480.256 480.256a32 32 0 0 1-22.656 54.656z" fill="#707070" p-id="2058"></path><path d="M777.024 1003.52H244.352c-54.4 0-98.624-44.224-98.624-98.624V593.152a32 32 0 0 1 64 0v311.744c0 19.072 15.552 34.624 34.624 34.624h532.608a34.56 34.56 0 0 0 34.496-34.624V593.152a32 32 0 0 1 64 0v311.744a98.624 98.624 0 0 1-98.432 98.624z" fill="#707070" p-id="2059"></path></svg>