<?xml version="1.0" standalone="no"?><!DOCTYPE svg PUBLIC "-//W3C//DTD SVG 1.1//EN" "http://www.w3.org/Graphics/SVG/1.1/DTD/svg11.dtd"><svg t="1551267382167" class="icon" style="" viewBox="0 0 1024 1024" version="1.1" xmlns="http://www.w3.org/2000/svg" p-id="8360" xmlns:xlink="http://www.w3.org/1999/xlink" width="128" height="128"><defs><style type="text/css"></style></defs><path d="M864 384h-64V288c0-160-128-288-288-288S224 128 224 288v96H160c-89.6 0-160 70.4-160 160v320c0 89.6 70.4 160 160 160h704c89.6 0 160-70.4 160-160V544c0-89.6-70.4-160-160-160zM288 288c0-124.8 99.2-224 224-224s224 99.2 224 224v96H288V288z m672 576c0 54.4-41.6 96-96 96H160c-51.2 0-96-41.6-96-96V544c0-54.4 44.8-96 96-96h704c54.4 0 96 41.6 96 96v320z" p-id="8361" fill="#8a8a8a"></path><path d="M608 640c0 41.6-25.6 76.8-64 89.6V832c0 16-16 32-32 32s-32-16-32-32v-102.4c-38.4-12.8-64-48-64-89.6 0-54.4 41.6-96 96-96s96 41.6 96 96z" p-id="8362" fill="#8a8a8a"></path></svg>