<?xml version="1.0" encoding="iso-8859-1"?>
<!-- Generator: Adobe Illustrator 19.0.0, SVG Export Plug-In . SVG Version: 6.00 Build 0)  -->
<svg version="1.1" id="Capa_1" xmlns="http://www.w3.org/2000/svg" xmlns:xlink="http://www.w3.org/1999/xlink" x="0px" y="0px"
	 viewBox="0 0 512 512" style="enable-background:new 0 0 512 512;" xml:space="preserve">
<path style="fill:#BEE8FF;" d="M188.9,372.678c16.346-14.337,26.694-35.352,26.694-58.753c0-43.101-35.064-78.166-78.166-78.166
	c-43.1,0-78.165,35.064-78.165,78.166c0,23.4,10.349,44.416,26.694,58.753c-41.901,19.482-71.026,61.973-71.026,111.143
	c0,8.496,6.888,15.384,15.384,15.384h214.227c8.496,0,15.384-6.888,15.384-15.384C259.926,434.65,230.801,392.16,188.9,372.678z"/>
<path style="fill:#18A7FC;" d="M137.423,347.997H15.384C6.888,347.997,0,341.109,0,332.613v-15.451
	c0-75.779,61.65-137.428,137.428-137.428c75.78,0,137.429,61.65,137.429,137.428c0,8.496-6.888,15.384-15.384,15.384
	s-15.384-6.888-15.384-15.384c0-58.813-47.847-106.66-106.661-106.66c-58.813,0-106.66,47.847-106.66,106.66v0.067h106.655
	c8.496,0,15.384,6.888,15.384,15.384S145.919,347.997,137.423,347.997z"/>
<path style="fill:#FEEB70;" d="M290.494,259.166c-6.475,0-12.769-2.542-17.545-7.319c-6.784-6.785-9.062-16.637-5.943-25.711
	l14.594-42.474c-7.135-15.611-10.897-32.763-10.924-50.013c-0.049-31.815,12.256-61.892,34.649-84.691
	c22.399-22.804,52.251-35.642,84.061-36.145c32.959-0.554,63.97,12.022,87.273,35.325c23.303,23.304,35.848,54.296,35.325,87.273
	c-0.504,31.808-13.34,61.661-36.144,84.06c-22.754,22.348-52.759,34.649-84.503,34.65c-0.065,0-0.125,0-0.19,0
	c-17.249-0.026-34.401-3.787-50.013-10.924l-42.473,14.594C295.974,258.714,293.218,259.166,290.494,259.166z"/>
<path style="fill:#18A7FC;" d="M373.911,179.781c-0.463,0-0.927-0.022-1.392-0.064c-4.254-0.387-8.158-2.525-10.774-5.903
	l-26.232-33.883c-5.201-6.719-3.971-16.381,2.748-21.583c6.72-5.202,16.383-3.971,21.582,2.748l16.11,20.808l51.083-45.798
	c6.325-5.671,16.052-5.14,21.724,1.186c5.671,6.326,5.141,16.052-1.186,21.724l-63.394,56.836
	C381.346,178.392,377.684,179.781,373.911,179.781z"/>
<path style="fill:#54CBFF;" d="M188.9,372.678c16.346-14.337,26.694-35.352,26.694-58.753c0-43.101-35.064-78.166-78.165-78.166
	v263.446h107.114c8.496,0,15.384-6.888,15.384-15.384C259.926,434.65,230.801,392.16,188.9,372.678z"/>
<g>
	<path style="fill:#0074F0;" d="M152.807,332.613c0-8.494-6.885-15.381-15.379-15.384v30.768
		C145.922,347.994,152.807,341.107,152.807,332.613z"/>
	<path style="fill:#0074F0;" d="M137.429,179.734v30.768c58.813,0,106.661,47.848,106.661,106.66
		c0,8.496,6.888,15.384,15.384,15.384c8.496,0,15.384-6.888,15.384-15.384C274.858,241.384,213.208,179.734,137.429,179.734z"/>
</g>
<path style="fill:#FCB629;" d="M392.491,12.799v241.307c31.316-0.295,60.872-12.559,83.35-34.636
	c22.804-22.399,35.641-52.252,36.144-84.06c0.523-32.976-12.023-63.97-35.325-87.273C454.09,25.567,424.289,13.061,392.491,12.799z"
	/>
<path style="fill:#0074F0;" d="M427.035,96.107l-34.544,30.971V168.4l55.083-49.384c6.327-5.672,6.857-15.398,1.186-21.724
	C443.087,90.966,433.36,90.435,427.035,96.107z"/>
<g>
</g>
<g>
</g>
<g>
</g>
<g>
</g>
<g>
</g>
<g>
</g>
<g>
</g>
<g>
</g>
<g>
</g>
<g>
</g>
<g>
</g>
<g>
</g>
<g>
</g>
<g>
</g>
<g>
</g>
</svg>
